{
  "title": "HighWay 2014 Hindi DVDSCR-Rip x264 MP3-MafiaKing",
  "uid": 9651467,
  "size": 734750513,
  "categoryP": "video",
  "categoryS": "movies",
  "magnet": "?xt=urn:btih:5139a5b2eb87c2c86e0028d86d3303472c16fcc9&amp;dn=HighWay+2014+Hindi+DVDSCR-Rip+x264+MP3-MafiaKing&amp;tr=udp%3A%2F%2Ftracker.openbittorrent.com%3A80&amp;tr=udp%3A%2F%2Fopen.demonii.com%3A1337&amp;tr=udp%3A%2F%2Ftracker.coppersurfer.tk%3A6969&amp;tr=udp%3A%2F%2Fexodus.desync.com%3A6969",
  "seeders": 48,
  "leechers": 7,
  "uploader": "HeroMaster",
  "files": -1,
  "time": 1393081430,
  "description": ":::::::: MafiaKing PRESENTS ::::::::\n\n\n:::: HighWay 2014 Hindi DVDSCR-Rip x264 MP3-MafiaKing ::::\n\n\n::Information::\n\n\n::General::\n\nFormat : Matroska\nFormat version : Version 4 / Version 2\nFile size : 696 MiB\nDuration : 2h 13mn\nOverall bit rate : 731 Kbps\nWriting library : libebml v1.3.0 + libmatroska v1.4.1\n\n\n::Video::\n\nID : 1\nFormat : AVC\nFormat/Info : Advanced Video Codec\nFormat profile : &lt;a class=&quot;__cf_email__&quot; href=&quot;/cdn-cgi/l/email-protection&quot; data-cfemail=&quot;1d55747a755d5129332c&quot;&gt;[email&amp;#160;protected]&lt;/a&gt;&lt;script cf-hash='f9e31' type=&quot;text/javascript&quot;&gt;\n/* &lt;![CDATA[ */!function(){try{var t=&quot;currentScript&quot;in document?document.currentScript:function(){for(var t=document.getElementsByTagName(&quot;script&quot;),e=t.length;e--;)if(t[e].getAttribute(&quot;cf-hash&quot;))return t[e]}();if(t&amp;&amp;t.previousSibling){var e,r,n,i,c=t.previousSibling,a=c.getAttribute(&quot;data-cfemail&quot;);if(a){for(e=&quot;&quot;,r=parseInt(a.substr(0,2),16),n=2;a.length-n;n+=2)i=parseInt(a.substr(n,2),16)^r,e+=String.fromCharCode(i);e=document.createTextNode(e),c.parentNode.replaceChild(e,c)}}}catch(u){}}();/* ]]&gt; */&lt;/script&gt;\nFormat settings, CABAC : Yes\nFormat settings, ReFrames : 5 frames\nCodec ID : V_MPEG4/ISO/AVC\nDuration : 2h 13mn\nBit rate : 665 Kbps\nWidth : 640 pixels\nHeight : 272 pixels\nDisplay aspect ratio : 2.35:1\nFrame rate mode : Constant\nFrame rate : 23.976 fps\nColor space : YUV\nChroma subsampling : 4:2:0\nBit depth : 8 bits\nScan type : Progressive\nBits/(Pixel*Frame) : 0.159\nStream size : 621 MiB (89%)\nTitle : Mafiaking\nLanguage : Hindi\nDefault : Yes\nForced : No\n\n\n::Audio::\n\nID : 2\nFormat : MPEG Audio\nFormat version : Version 2\nFormat profile : Layer 3\nMode : Joint stereo\nMode extension : MS Stereo\nCodec ID : A_MPEG/L3\nCodec ID/Hint : MP3\nDuration : 2h 13mn\nBit rate mode : Constant\nBit rate : 64.0 Kbps\nChannel count : 2 channels\nSampling rate : 24.0 KHz\nCompression mode : Lossy\nStream size : 60.9 MiB (9%)\nTitle : Mafiaking\nWriting library : LAME3.99r\nLanguage : Hindi\nDefault : Yes\nForced : No\n\n\n::IMDB::\n\n &lt;a href=&quot;\nhttp://www.imdb.com/title/tt2980794/&quot; rel=&quot;nofollow&quot; target=&quot;_NEW&quot;&gt;\nhttp://www.imdb.com/title/tt2980794/&lt;/a&gt;\n\n\n::Greetz and Respect::\n\n\nALL CREDIT Goes to MafiaKing for Encoding and Distribution.\n\n\n::Poster::\n\n &lt;a href=&quot;\nhttp://i.imgur.com/tnVdg1T.jpg&quot; rel=&quot;nofollow&quot; target=&quot;_NEW&quot;&gt;\nhttp://i.imgur.com/tnVdg1T.jpg&lt;/a&gt;\n\n\n::Screenshot::\n\n &lt;a href=&quot;\nhttp://i.imgur.com/AHLSdUu.jpg&quot; rel=&quot;nofollow&quot; target=&quot;_NEW&quot;&gt;\nhttp://i.imgur.com/AHLSdUu.jpg&lt;/a&gt;\n\n &lt;a href=&quot;\nhttp://i.imgur.com/zapwGfx.jpg&quot; rel=&quot;nofollow&quot; target=&quot;_NEW&quot;&gt;\nhttp://i.imgur.com/zapwGfx.jpg&lt;/a&gt;\n\n &lt;a href=&quot;\nhttp://i.imgur.com/jstTBm0.jpg&quot; rel=&quot;nofollow&quot; target=&quot;_NEW&quot;&gt;\nhttp://i.imgur.com/jstTBm0.jpg&lt;/a&gt;\n\n\nSEED AND ENJOY!",
  "parsed": {
    "xt": "urn:btih:5139a5b2eb87c2c86e0028d86d3303472c16fcc9",
    "dn": "HighWay 2014 Hindi DVDSCR-Rip x264 MP3-MafiaKing",
    "tr": [
      "udp://exodus.desync.com:6969",
      "udp://open.demonii.com:1337",
      "udp://tracker.coppersurfer.tk:6969",
      "udp://tracker.openbittorrent.com:80"
    ],
    "infoHash": "5139a5b2eb87c2c86e0028d86d3303472c16fcc9",
    "infoHashBuffer": {
      "type": "Buffer",
      "data": [
        81,
        57,
        165,
        178,
        235,
        135,
        194,
        200,
        110,
        0,
        40,
        216,
        109,
        51,
        3,
        71,
        44,
        22,
        252,
        201
      ]
    },
    "name": "HighWay 2014 Hindi DVDSCR-Rip x264 MP3-MafiaKing",
    "announce": [
      "udp://exodus.desync.com:6969",
      "udp://open.demonii.com:1337",
      "udp://tracker.coppersurfer.tk:6969",
      "udp://tracker.openbittorrent.com:80"
    ],
    "urlList": []
  },
  "previous": 1,
  "peers": 28,
  "last_updated": "2016-12-27T00:10:15.288Z"
}